<svg width="25" height="22" viewBox="0 0 25 22" fill="none" xmlns="http://www.w3.org/2000/svg">
<path d="M22.5 11C22.5 14.8605 20.189 21 19 19C18 16.5 13.5917 15.8979 10 15C5.58172 15 2 12.7614 2 10C2 8.42463 4.5 5.49985 6 3.99985C8 3.5 10.6023 3 12.5 3C16.9183 3 22.5 8 22.5 11Z" fill="white"/>
<path d="M1.57617 10.4009C1.57617 8.69922 2.42285 7.08887 3.81738 6.15918C3.81738 6.12598 3.81738 6.10107 3.81738 6.07617C3.81738 4.10889 5.42773 2.73096 7.43652 2.73096C8.05078 2.73096 8.68164 2.86377 9.2959 3.1377C10.0347 2.33252 11.1138 1.85107 12.3838 1.85107C13.5459 1.85107 14.6084 2.34912 15.2725 3.1709C15.5049 3.11279 15.7373 3.08789 15.9033 3.08789C17.7627 3.08789 19.4229 4.34961 19.8545 6.3252C22.0127 6.74854 23.4238 8.37549 23.4238 10.4673C23.4238 11.5381 23.125 12.4512 22.5854 13.1484C22.6353 13.7212 22.6768 14.3604 22.6768 15.2319C22.6768 17.689 21.6641 20.2124 19.5889 20.2124C18.1528 20.2124 17.2646 18.8428 17.0737 17.4316C16.8579 17.4399 16.6421 17.4482 16.4429 17.4482C15.3887 17.4482 14.4673 17.083 13.8696 16.4355C13.2222 16.5933 12.5747 16.668 11.9937 16.668C10.3999 16.668 9.02197 16.1367 8.10889 15.3149C7.68555 15.3979 7.2373 15.4395 6.76416 15.4395C3.65137 15.4395 1.57617 13.4307 1.57617 10.4009ZM8.2417 5.85205C8.2666 5.2876 8.38281 4.76465 8.57373 4.2915C8.19189 4.14209 7.80176 4.06738 7.42822 4.06738C6.125 4.06738 5.15381 4.89746 5.15381 6.07617C5.15381 7.13867 5.90918 7.91064 7.1377 7.91064C7.49463 7.91064 7.80176 8.21777 7.80176 8.58301C7.80176 8.93994 7.49463 9.24707 7.1377 9.24707C5.71826 9.24707 4.65576 8.60791 4.14941 7.57861C3.36914 8.28418 2.9126 9.31348 2.9126 10.3926C2.9126 12.6255 4.46484 14.1113 6.78906 14.1113C9.05518 14.1113 10.5659 12.8247 10.5659 10.8989C10.5659 10.2681 10.3667 9.75342 10.0181 9.41309C9.63623 9.06445 9.39551 8.95654 9.39551 8.5415C9.39551 8.20117 9.66113 7.96875 10.043 7.96875C10.3335 7.96875 10.5078 8.05176 10.8149 8.30908C11.0806 8.5332 11.2964 8.81543 11.4707 9.13916C12.7324 8.84033 13.2139 8.06006 13.2139 6.81494C13.2139 6.44971 13.5127 6.15088 13.8779 6.15088C14.2432 6.15088 14.5503 6.44971 14.5503 6.81494C14.5503 8.64941 13.7119 9.92773 11.8442 10.4009C11.8691 10.5669 11.8774 10.7412 11.8774 10.9238C11.8774 12.6338 11.064 13.9785 9.69434 14.7422C10.3667 15.1157 11.2549 15.3315 12.1348 15.3315C12.4917 15.3315 12.8735 15.2983 13.2305 15.2153C13.1807 14.9912 13.1475 14.7588 13.1475 14.5098C13.1475 10.708 18.626 11.2393 18.626 7.34619C18.626 5.55322 17.2148 4.44092 15.729 4.42432C15.4302 4.42432 15.123 4.46582 14.8491 4.54053C14.6914 4.58203 14.6001 4.57373 14.5337 4.45752C14.1934 3.69385 13.3467 3.1792 12.3755 3.1792C10.7651 3.1792 9.61963 4.33301 9.56152 5.91016C9.54492 6.3335 9.2627 6.57422 8.89746 6.57422C8.51562 6.57422 8.2251 6.28369 8.2417 5.85205ZM18.0034 13.9951C18.0034 13.6299 18.3022 13.2979 18.6758 13.3311C20.7178 13.4888 22.0874 12.3433 22.0874 10.4673C22.0874 8.99805 21.2573 7.94385 19.9541 7.66992C19.7051 12.1025 14.4839 11.5215 14.4839 14.4849C14.4839 15.7715 15.5713 16.2778 17.2231 16.2778C17.4307 16.2778 17.7461 16.2778 17.9785 16.2778C18.0947 16.2695 18.1445 16.3276 18.1445 16.4106C18.1445 17.5063 18.5596 18.876 19.5889 18.876C20.585 18.876 21.3486 17.2324 21.3486 15.2153C21.3486 14.8418 21.332 14.5098 21.3071 14.186C20.5767 14.5513 19.6885 14.7256 18.6758 14.6592C18.3022 14.6343 18.0034 14.3687 18.0034 13.9951Z" fill="#574CBF"/>
</svg>
